<svg xmlns="http://www.w3.org/2000/svg" width="22.803" height="29" viewBox="0 0 22.803 29">
    <defs>
        <style>
            .cls-1{fill:#ffe07d}.cls-2{fill:#ffd064}.cls-3{fill:#e8ae4d}.cls-4{fill:#e5a32e}
        </style>
    </defs>
    <g id="Grupo_460" transform="translate(-54.702)">
        <g id="Grupo_464" transform="translate(54.702)">
            <g id="Grupo_460-2" transform="translate(1.907 14.701)">
                <path id="Trazado_221" d="M92.276 270.658l4.041-9.756-3.245-1.344-4.656 11.242a.606.606 0 0 0 .738.811l2.64-.81a.582.582 0 0 1 .231-.024z" class="cls-1" transform="translate(-88.368 -259.558)"/>
                <path id="Trazado_222" d="M157.044 282.027l-4.119 9.945a.606.606 0 0 1 .482.319l1.294 2.44a.606.606 0 0 0 1.1-.052l4.656-11.24z" class="cls-2" transform="translate(-149.269 -280.754)"/>
                <path id="Trazado_223" d="M229.684 281.364l-3.5 1.449 4.656 11.24a.606.606 0 0 0 1.1.052l1.294-2.44a.6.6 0 0 1 .157-.189l.317-.4z" class="cls-1" transform="translate(-218.38 -280.129)"/>
                <path id="Trazado_224" d="M288.692 270.8l-4.656-11.24-3.4 1.407 4.118 9.941a.606.606 0 0 1 .556-.106l2.64.81a.606.606 0 0 0 .742-.812z" class="cls-2" transform="translate(-269.75 -259.557)"/>
            </g>
            <g id="Grupo_463">
                <path id="Trazado_225" d="M67.272.407A1.881 1.881 0 0 0 69 .73a1.881 1.881 0 0 1 2.18.845 1.881 1.881 0 0 0 1.494.925A1.881 1.881 0 0 1 74.4 4.075a1.881 1.881 0 0 0 1.059 1.4A1.881 1.881 0 0 1 76.5 7.57a1.881 1.881 0 0 0 .481 1.69 1.881 1.881 0 0 1 .216 2.328 1.881 1.881 0 0 0-.162 1.749 1.881 1.881 0 0 1-.64 2.249 1.881 1.881 0 0 0-.783 1.573 1.881 1.881 0 0 1-1.412 1.866 1.881 1.881 0 0 0-1.3 1.184 1.881 1.881 0 0 1-1.988 1.231 1.881 1.881 0 0 0-1.638.635 1.881 1.881 0 0 1-2.3.43 1.881 1.881 0 0 0-1.757 0 1.881 1.881 0 0 1-2.3-.43 1.881 1.881 0 0 0-1.638-.635 1.881 1.881 0 0 1-1.979-1.231 1.881 1.881 0 0 0-1.3-1.184 1.881 1.881 0 0 1-1.409-1.866 1.881 1.881 0 0 0-.783-1.573 1.881 1.881 0 0 1-.64-2.249 1.881 1.881 0 0 0-.162-1.749 1.881 1.881 0 0 1 .216-2.328 1.881 1.881 0 0 0 .478-1.69 1.881 1.881 0 0 1 1.042-2.093 1.881 1.881 0 0 0 1.059-1.4A1.881 1.881 0 0 1 59.533 2.5a1.881 1.881 0 0 0 1.494-.925 1.881 1.881 0 0 1 2.18-.845 1.881 1.881 0 0 0 1.727-.323 1.881 1.881 0 0 1 2.338 0z" class="cls-3" transform="translate(-54.702)"/>
                <g id="Grupo_462" transform="translate(3.103 3.063)">
                    <path id="Trazado_226" d="M122.919 62.972a8.729 8.729 0 0 0-5.913-8.262 8.3 8.3 0 0 0 0 16.524 8.729 8.729 0 0 0 5.913-8.262z" class="cls-1" transform="translate(-109.489 -54.674)"/>
                    <path id="Trazado_227" d="M225.218 54.07a8.324 8.324 0 0 0-1.848.207 8.3 8.3 0 0 1 0 16.183 8.3 8.3 0 1 0 1.848-16.39z" class="cls-2" transform="translate(-216.92 -54.07)"/>
                    <path id="Trazado_228" d="M159.89 106.194l2.864 1.928a.4.4 0 0 0 .346.053q.152-.206.292-.422a.431.431 0 0 0-.015-.084l-.948-3.32a.409.409 0 0 1 .141-.435l2.187-1.712a8.709 8.709 0 0 0-.187-1.165l-2.97-.107a.409.409 0 0 1-.37-.269l-1.184-3.243a.409.409 0 0 0-.769 0l-1.184 3.243a.409.409 0 0 1-.37.269l-3.45.124a.409.409 0 0 0-.238.732l2.719 2.128a.409.409 0 0 1 .141.435l-.948 3.32a.409.409 0 0 0 .622.452l2.864-1.928a.41.41 0 0 1 .457 0z" class="cls-3" transform="translate(-151.363 -94.71)"/>
                    <g id="Grupo_461" transform="translate(11.224 6.308)">
                        <path id="Trazado_229" d="M307.825 273.3a.409.409 0 0 0 .622-.452l-.172-.6a8.317 8.317 0 0 1-.617.942z" class="cls-4" transform="translate(-307.658 -266.192)"/>
                        <path id="Trazado_230" d="M334.032 165.476l-1.027-.037a8.291 8.291 0 0 1 .23 1.579l1.035-.81a.409.409 0 0 0-.238-.732z" class="cls-4" transform="translate(-331.569 -165.439)"/>
                    </g>
                </g>
            </g>
        </g>
    </g>
</svg>
