<svg xmlns="http://www.w3.org/2000/svg" id="Grupo_461" width="35.222" height="35.222" viewBox="0 0 35.222 35.222">
    <defs>
        <style>
            .cls-2{fill:#fff}
        </style>
    </defs>
    <g id="Grupo_7913">
        <circle id="Elipse_133" cx="17.611" cy="17.611" r="17.611" fill="#23458a"/>
        <g id="Grupo_461-2" transform="translate(3.771 13.51)">
            <path id="Trazado_229" d="M61.9 8.9l1.364-8h2.177l-1.364 8z" class="cls-2" transform="translate(-52.255 -.762)"/>
            <path id="Trazado_230" d="M91.546.337A5.428 5.428 0 0 0 89.6 0c-2.163 0-3.68 1.088-3.68 2.637-.015 1.15 1.088 1.794 1.916 2.177.843.4 1.134.644 1.134 1 0 .537-.674.782-1.3.782a4.689 4.689 0 0 1-2.054-.414l-.307-.138L85 7.833a6.888 6.888 0 0 0 2.437.429c2.3 0 3.786-1.073 3.8-2.729.015-.9-.567-1.61-1.824-2.177-.766-.368-1.226-.613-1.226-1 0-.337.4-.69 1.242-.69a3.775 3.775 0 0 1 1.625.307l.2.092.292-1.728" class="cls-2" transform="translate(-71.724)"/>
            <path id="Trazado_231" d="M130.671 1h-1.686a1.093 1.093 0 0 0-1.15.659L124.6 8.987h2.284s.368-.981.46-1.2h2.79l.261 1.2h2.023L130.671 1m-2.683 5.151c.184-.46.874-2.238.874-2.238-.015.015.184-.46.291-.766l.153.69s.414 1.916.506 2.315z" class="cls-2" transform="translate(-105.115 -.847)"/>
            <path id="Trazado_232" d="M20.281.9l-2.146 5.457-.23-1.1a6.186 6.186 0 0 0-3-3.357l1.942 7h2.315L22.6.9h-2.319" class="cls-2" transform="translate(-12.616 -.762)"/>
            <path id="Trazado_233" d="M3.541.9H.031L0 1.069a7.22 7.22 0 0 1 5.3 4.185l-.762-3.679a.922.922 0 0 0-1-.675" class="cls-2" transform="translate(0 -.762)"/>
        </g>
    </g>
</svg>
